<svg xmlns="http://www.w3.org/2000/svg" shape-rendering="geometricPrecision" text-rendering="geometricPrecision" image-rendering="optimizeQuality" fill-rule="evenodd" clip-rule="evenodd" viewBox="0 0 249.22 506.504"><path fill="#fff" d="M73.659 50.519c1.645-21.822 14.755-40.096 32.627-47.257 10.503-4.206 25.455-4.135 35.926.022 17.936 7.115 31.334 25.336 32.756 47.222 1.217 18.74-15.52 40.013-31.799 46.897-11.117 4.696-26.574 4.704-37.708-.002-17.284-7.307-32.454-26.446-31.802-46.882z"/><path fill="#313131" d="M50.344 214.735h26.61a15.616 15.616 0 00-1.867 7.415v4.423H50.263c-.563 4.018-4.037 7.136-8.204 7.136H8.284c-4.556 0-8.284-3.728-8.284-8.284v-11.179c0-4.557 3.728-8.285 8.284-8.285h33.775c4.556 0 8.285 3.728 8.285 8.285v.489z"/><path fill="#3A3B3F" d="M114.845 312.669h18.672c5.777 0 10.503 4.726 10.503 10.503v163.494c0 10.911-8.928 19.838-19.839 19.838-10.912 0-19.839-8.927-19.839-19.838V323.172c0-5.777 4.726-10.503 10.503-10.503z"/><path fill="#5C5C5C" d="M114.844 312.669h18.673c5.778 0 10.503 4.726 10.503 10.503v143.319c0 10.912-8.927 19.839-19.838 19.839h-.001c-10.912 0-19.839-8.927-19.839-19.839V323.172c0-5.777 4.726-10.503 10.502-10.503z"/><path fill="#4B5E71" d="M75.223 231.089L45.79 274.602c-4.314 5.977-4.569 12.52-4.569 21.353v89.429c-.18 9.907 1.854 14.08 11.139 14.757h22.415v-90.064c-.203-4.392.427-8.047 1.777-11.063 1.3-2.903 3.267-5.215 5.802-7.025-4.287-2.823-7.131-7.678-7.131-13.166v-47.734zM173.317 231.089l29.433 43.513c4.316 5.977 4.57 12.52 4.57 21.353v89.429c.18 9.907-1.854 14.08-11.139 14.757h-22.415v-90.064c.203-4.392-.427-8.047-1.777-11.063-1.3-2.903-3.267-5.215-5.802-7.025 4.286-2.823 7.13-7.678 7.13-13.166v-47.734z"/><path fill="#DB684A" d="M85.532 112.297c5.543 6.373 21.348 14.734 38.101 14.734s33.332-7.3 38.617-14.75l10.179 38.091.008.004v66.223c-2.257-5.948-8.024-10.205-14.739-10.205H90.843c-6.714 0-12.481 4.257-14.739 10.205v-66.293l9.428-38.009z"/><path fill="#313131" d="M162.25 112.28l10.179 38.092c13.708 5.938 17.335 22.148 24.82 35.982 2.327 4.303 4.665 12.366 10.084 12.366h31.439l-25.042-50.648c-10.909-19.542-27.594-32.473-51.48-35.792zm-76.718.015l-9.439 38.057c-13.678 5.974-17.325 22.183-24.801 36.002-2.327 4.303-4.665 12.366-10.084 12.366H9.769l25.041-50.648c10.91-19.542 26.835-32.458 50.722-35.777z"/><path fill="#323840" d="M165.382 408.165h36.508c8.41 0 8.423 12.706 0 12.725l-49.392.123v-97.47c0-10.561-8.641-19.202-19.201-19.202h-18.522c-10.56 0-19.201 8.641-19.201 19.202v97.347c0 .23-45.067 0-49.299 0-8.417 0-8.416-12.725 0-12.725h36.414v-102.18c0-6.328 5.178-11.505 11.506-11.505h59.682c6.329 0 11.505 5.177 11.505 11.505v102.18z"/><path fill="#313131" d="M167.258 84.182c-1.379 9.001-5.647 17.08-11.818 23.252-7.587 7.587-19.236 12.298-30.758 12.298-11.522 0-23.17-4.711-30.757-12.298-5.766-5.766-9.869-13.198-11.508-21.49-5.258-8.277-8.488-18.231-8.892-28.99 15.942-3.956 33.779-5.799 50.251-5.799 17.332 0 35.565 2.046 51.3 5.818-.379 9.998-3.198 19.303-7.818 27.209zM109.485 44.825c-12.033.711-24.085 2.416-35.827 5.215 1.741-22.927 16.336-41.829 35.827-47.948v42.733zM140.646 2.6c18.726 6.61 32.608 25.128 34.297 47.46-10.966-2.532-22.507-4.257-34.297-5.075V2.6zM124.299 0c2.64 0 6.914.275 9.677.8l-.045 43.819a244.357 244.357 0 00-16.556-.088L117.278.544A43.1 43.1 0 01124.299 0z"/><path fill="#FFDBCE" d="M168.101 67.656c-1.943-.428-3.596-.69-5.781-.094v13.09l.427.094c2.882-3.714 4.4-8.234 5.354-13.09zm-88.27 0c1.943-.428 3.596-.69 5.781-.094v13.09l-.425.094c-2.883-3.714-4.402-8.234-5.356-13.09zm44.782-6.159c-10.594-.104-22.36 1.284-32.943 4.419v11.936c0 8.741 3.58 16.693 9.347 22.46 5.767 5.767 14.893 9.348 23.635 9.348s17.87-3.581 23.637-9.348c5.767-5.768 9.347-13.719 9.347-22.46V66.044c-10.644-2.842-22.439-4.442-33.023-4.547z"/><path fill="#F3BCAC" fill-rule="nonzero" d="M117.999 87.027a2.38 2.38 0 111.662-4.462c1.623.603 3.266.81 4.921.763 1.71-.05 3.489-.385 5.298-.847a2.388 2.388 0 111.176 4.63c-2.072.53-4.174.915-6.343.978-2.225.064-4.462-.225-6.714-1.062z"/><path fill="#EAC6B9" d="M124.613 61.497c-10.594-.104-22.36 1.284-32.943 4.419v1.786c21.988-2.799 43.978-2.76 65.966 0v-1.658c-10.644-2.842-22.439-4.442-33.023-4.547z"/><path fill="#313131" d="M198.877 214.735h-27.289a15.627 15.627 0 011.866 7.415v4.423h25.503c.563 4.018 4.037 7.136 8.204 7.136h33.775c4.556 0 8.284-3.728 8.284-8.284v-11.179c0-4.557-3.728-8.285-8.284-8.285h-33.775c-4.556 0-8.284 3.728-8.284 8.285v.489z"/><path fill="#fff" d="M90.843 206.394h66.855c8.666 0 15.756 7.089 15.756 15.756v56.673c0 8.666-7.09 15.756-15.756 15.756H90.843c-8.665 0-15.756-7.09-15.756-15.756V222.15c0-8.667 7.091-15.756 15.756-15.756z"/><rect fill="#323840" x="83.383" y="213.887" width="82.327" height="72.746" rx="8.761" ry="8.812"/><circle fill="#FB9C78" cx="124.548" cy="250.26" r="22.637"/></svg>